<?xml version="1.0" standalone="no"?>
<!DOCTYPE svg PUBLIC "-//W3C//DTD SVG 20010904//EN"
 "http://www.w3.org/TR/2001/REC-SVG-20010904/DTD/svg10.dtd">
<svg version="1.0" xmlns="http://www.w3.org/2000/svg"
 width="202.000000pt" height="234.000000pt" viewBox="0 0 202.000000 234.000000"
 preserveAspectRatio="xMidYMid meet">

<g transform="translate(0.000000,234.000000) scale(0.100000,-0.100000)"
fill="#000000" stroke="none">
<path d="M935 2276 c-16 -7 -46 -23 -65 -35 l-35 -23 78 7 77 6 0 -246 c0
-135 -2 -245 -5 -245 -2 0 -29 25 -60 55 -30 30 -63 56 -73 57 -9 0 6 4 33 8
l50 7 -55 1 -55 2 -1 52 c-1 50 -3 54 -54 99 -51 45 -53 48 -47 85 4 24 3 34
-2 25 -8 -12 -10 -12 -12 1 -3 10 -49 -12 -169 -83 -91 -53 -183 -107 -205
-118 -210 -110 -275 -167 -295 -264 -7 -36 -10 -212 -8 -543 3 -479 3 -490 25
-529 11 -22 34 -52 50 -66 22 -21 455 -275 686 -403 49 -27 64 -36 111 -65 49
-31 125 -33 181 -6 37 19 40 23 41 66 1 43 0 46 -20 41 -19 -5 -19 -4 -7 11 7
9 17 14 22 11 5 -3 9 2 9 10 0 9 -4 16 -10 16 -5 0 -7 6 -4 13 3 8 6 27 7 43
2 22 7 28 22 26 16 -3 17 -1 6 12 -7 8 -9 21 -5 27 4 7 3 9 -3 6 -14 -9 -24
47 -18 95 3 21 1 49 -5 62 -6 17 -6 27 2 32 6 4 8 3 5 -3 -4 -6 0 -16 8 -23
13 -11 15 -9 13 8 -2 11 0 21 5 21 28 3 37 0 31 -11 -4 -6 -3 -8 3 -5 6 4 66
-5 134 -19 74 -15 159 -26 210 -26 82 -1 91 1 155 36 68 37 148 111 159 148 4
10 12 18 18 18 7 0 17 11 23 24 9 20 8 28 -4 40 -10 10 -12 16 -5 16 8 0 9 9
2 33 -11 37 1 50 63 69 37 11 38 12 38 60 l0 49 -85 40 c-95 43 -105 57 -105
138 0 33 6 56 20 74 11 14 20 28 20 32 0 15 -93 191 -135 257 -70 107 -111
148 -151 148 l-34 0 -1 73 c0 39 0 124 1 187 l0 115 -111 68 c-61 37 -121 67
-133 67 -12 0 -48 20 -81 45 -110 83 -179 102 -250 71z m-228 -453 c-2 -21 -4
-4 -4 37 0 41 2 58 4 38 2 -21 2 -55 0 -75z m63 77 c25 -21 30 -30 18 -30 -9
0 -20 -5 -24 -12 -5 -8 0 -9 14 -6 24 7 30 -10 10 -30 -8 -8 -8 -15 1 -26 11
-13 7 -15 -27 -13 l-39 1 -2 73 c-1 40 2 73 6 73 4 0 24 -14 43 -30z m-130
-175 c0 -7 9 -17 21 -20 12 -4 19 -14 17 -23 -4 -21 -95 -30 -112 -11 -8 8 -8
13 2 16 7 3 23 15 34 27 12 11 18 15 14 9 -4 -7 -2 -13 5 -13 6 0 9 8 6 20 -3
11 -1 18 4 14 5 -3 9 -11 9 -19z m698 -92 c-10 -2 -26 -2 -35 0 -10 3 -2 5 17
5 19 0 27 -2 18 -5z m-788 -26 c0 18 72 6 88 -14 16 -22 15 -43 -1 -43 -7 0
-23 -9 -36 -21 -17 -16 -19 -24 -11 -34 7 -8 9 -19 5 -25 -3 -5 0 -10 7 -10 7
0 5 -5 -6 -11 -10 -6 -14 -14 -10 -18 5 -3 14 -15 20 -26 7 -11 18 -19 26 -19
8 1 20 -7 27 -17 7 -13 8 -19 0 -19 -5 0 -8 -4 -4 -9 3 -5 0 -13 -6 -17 -8 -4
-9 -3 -5 4 4 7 1 12 -8 12 -19 0 -21 -26 -3 -33 6 -2 -12 -2 -40 1 -61 5 -94
-11 -118 -59 -24 -46 -16 -91 19 -108 25 -12 36 -11 80 3 73 24 99 66 85 140
-4 16 3 18 64 20 64 1 67 0 67 -22 0 -15 -7 -26 -20 -29 -11 -3 -20 -11 -20
-18 0 -8 -9 -16 -19 -20 -11 -3 -22 -13 -25 -22 -5 -13 -4 -14 9 -3 14 11 19
7 16 -13 -1 -4 -3 -25 -5 -47 -2 -22 -10 -48 -17 -57 -13 -14 -11 -16 19 -11
37 5 43 -6 10 -17 -13 -4 -25 -7 -28 -7 -3 0 -5 -11 -5 -24 0 -20 2 -22 11 -9
15 21 38 -3 24 -25 -13 -20 -12 -30 1 -30 5 0 8 4 5 8 -2 4 -1 14 4 22 7 11
12 11 23 2 7 -7 16 -9 19 -6 3 3 9 1 12 -4 3 -5 -6 -15 -19 -22 -24 -13 -35
-33 -16 -28 12 4 52 -43 48 -56 -2 -5 -9 -12 -15 -14 -8 -2 -10 2 -6 13 6 16
-9 34 -28 35 -4 0 -7 -20 -6 -45 1 -25 6 -39 10 -32 5 7 8 1 8 -15 0 -22 -5
-28 -21 -28 -24 0 -57 -22 -142 -96 -34 -30 -67 -54 -74 -54 -6 0 -20 14 -30
30 -9 17 -21 30 -26 30 -4 0 -5 4 -2 10 9 15 -7 35 -28 35 -11 0 -27 16 -40
40 -12 22 -24 42 -27 45 -22 22 -32 47 -44 108 -13 66 -12 71 5 75 11 3 19 13
19 22 0 27 21 6 45 -48 l24 -50 -4 69 c-1 38 2 75 7 82 6 6 6 12 1 12 -5 0 -8
48 -6 108 1 59 2 120 2 136 0 16 7 39 15 51 9 14 11 27 5 36 -7 11 -9 11 -9
-3 0 -9 -9 -32 -19 -50 -11 -18 -22 -53 -26 -77 -4 -24 -13 -59 -21 -77 -8
-18 -11 -41 -8 -51 3 -10 -2 -7 -11 7 l-16 25 7 -25 c4 -14 10 -27 14 -30 3
-3 6 -22 6 -42 0 -29 -3 -35 -13 -26 -7 6 -13 21 -13 34 0 12 -4 26 -10 29 -5
3 -10 25 -10 48 0 63 22 197 33 197 5 0 7 12 3 28 -3 15 -3 21 0 14 11 -23 47
36 42 68 -3 21 0 30 9 30 9 0 12 -7 10 -17 -14 -52 -17 -77 -7 -63 5 8 10 26
10 39 0 20 2 22 15 11 9 -7 17 -11 19 -9 9 11 25 72 21 79 -3 4 7 20 22 34 20
20 28 24 35 14 5 -10 8 -10 8 -1z m645 3 c-3 -5 -11 -10 -16 -10 -6 0 -7 5 -4
10 3 6 11 10 16 10 6 0 7 -4 4 -10z m-440 -80 c-5 -8 -11 -8 -17 -2 -6 6 -7
16 -3 22 5 8 11 8 17 2 6 -6 7 -16 3 -22z m-117 -11 c-26 -15 -22 -29 8 -29
14 0 23 4 19 9 -3 5 -1 12 4 15 5 3 11 -3 14 -13 3 -14 -4 -21 -30 -29 -19 -6
-32 -8 -29 -5 3 3 -4 14 -15 24 -19 17 -19 18 -2 28 10 6 25 10 33 10 12 0 11
-2 -2 -10z m90 -70 c23 5 42 7 42 5 0 -2 0 -7 -1 -10 0 -4 5 -11 13 -15 10 -7
9 -9 -4 -9 -9 0 -20 5 -23 10 -3 6 -17 10 -30 10 -19 0 -23 -4 -18 -17 6 -16
5 -17 -13 -3 -23 18 -34 32 -34 44 0 6 6 2 13 -6 10 -14 20 -15 55 -9z m159
10 c8 -8 8 -18 1 -35 -16 -34 -28 -30 -28 11 0 36 8 43 27 24z m-257 -39 c0
-5 -4 -10 -10 -10 -5 0 -10 5 -10 10 0 6 5 10 10 10 6 0 10 -4 10 -10z m620
-239 c13 -25 13 -61 -1 -61 -5 0 -7 -5 -3 -12 4 -7 3 -8 -5 -4 -6 4 -9 12 -6
17 4 5 1 9 -4 9 -6 0 -11 7 -11 16 0 8 5 12 10 9 6 -3 10 -2 10 4 0 5 -4 13
-10 16 -5 3 -10 10 -10 16 0 16 19 10 30 -10z m73 -54 c20 4 26 -4 49 -63 15
-38 25 -70 23 -73 -3 -2 -31 0 -64 6 -33 5 -58 6 -55 1 3 -4 0 -8 -5 -8 -14 0
-14 3 0 76 14 77 21 95 26 73 3 -11 12 -15 26 -12z m-907 -375 c4 -15 16 -25
34 -29 17 -3 27 -10 24 -17 -3 -7 4 -20 15 -30 11 -10 17 -25 14 -34 -4 -10
-2 -13 5 -8 7 4 15 1 18 -8 5 -12 11 -13 24 -6 10 6 25 7 34 4 9 -3 19 3 26
15 6 12 8 21 4 21 -3 0 -1 7 6 15 7 8 16 13 20 10 4 -2 20 9 35 25 33 35 45
38 38 10 -4 -14 0 -20 12 -20 13 0 16 6 11 24 -4 16 -1 26 10 30 8 3 12 2 9
-4 -3 -5 1 -26 10 -46 8 -20 15 -52 15 -70 0 -32 -2 -34 -27 -28 -20 5 -25 4
-21 -7 3 -8 -1 -20 -8 -27 -8 -7 -14 -9 -14 -4 0 6 -17 13 -37 16 -21 4 -46 9
-55 12 -14 4 -18 0 -17 -23 1 -21 3 -23 6 -7 3 16 10 20 29 16 13 -2 27 -9 31
-16 3 -6 3 -8 -2 -4 -4 4 -15 2 -23 -5 -13 -10 -15 -9 -8 3 4 8 -2 4 -13 -9
-12 -13 -21 -18 -21 -10 0 10 -3 10 -12 1 -15 -15 -50 4 -46 26 2 12 -3 16
-19 15 -15 -2 -23 3 -23 13 0 8 4 13 8 10 5 -3 9 1 9 8 0 19 -25 9 -31 -12 -3
-10 -4 -2 -2 15 2 24 -4 39 -21 55 -13 12 -23 17 -23 11 0 -14 -26 -11 -42 5
-9 9 -9 12 0 12 7 0 12 -5 12 -11 0 -5 5 -7 11 -3 8 4 7 9 -2 15 -8 4 -15 13
-15 19 -3 23 -6 24 -14 5 -7 -17 -9 -17 -9 -2 -1 9 -5 17 -10 17 -5 0 -12 7
-15 16 -4 9 -2 13 5 8 8 -4 9 1 4 17 -7 23 -7 23 8 4 10 -13 12 -22 5 -26 -7
-4 -7 -9 0 -13 20 -12 22 13 3 44 -18 30 -19 31 -26 11 -3 -12 -10 -21 -15
-21 -5 0 -7 -12 -4 -27 3 -20 2 -24 -5 -14 -9 13 -9 22 1 61 1 8 10 18 18 22
17 7 57 -34 66 -70z m395 -16 c-19 -18 -23 -19 -31 -6 -5 8 -10 22 -10 30 0
11 3 11 12 2 18 -18 38 -15 39 6 0 12 2 13 6 3 3 -7 -4 -23 -16 -35z m-501 24
c0 -5 -2 -10 -4 -10 -3 0 -8 5 -11 10 -3 6 -1 10 4 10 6 0 11 -4 11 -10z m74
-85 c3 -8 1 -15 -4 -15 -6 0 -10 7 -10 15 0 8 2 15 4 15 2 0 6 -7 10 -15z m86
-42 c0 -32 -7 -27 -14 10 -3 16 -1 25 5 22 5 -4 9 -18 9 -32z m-30 21 c0 -8
-19 -13 -24 -6 -3 5 1 9 9 9 8 0 15 -2 15 -3z m375 -264 c3 -18 2 -20 -10 -10
-8 6 -11 18 -8 26 7 18 12 13 18 -16z m-145 -90 c0 -5 -7 -10 -16 -10 -8 0
-12 5 -9 10 3 6 10 10 16 10 5 0 9 -4 9 -10z m223 -55 c-3 -9 -8 -14 -10 -11
-3 3 -2 9 2 15 9 16 15 13 8 -4z m7 -60 c-7 -8 -18 -15 -24 -15 -6 0 -2 7 8
15 25 19 32 19 16 0z"/>
<path d="M536 1502 c-3 -5 1 -9 9 -9 8 0 12 4 9 9 -3 4 -7 8 -9 8 -2 0 -6 -4
-9 -8z"/>
<path d="M405 1409 c-4 -6 -5 -12 -2 -15 2 -3 7 2 10 11 7 17 1 20 -8 4z"/>
<path d="M442 1195 c0 -16 2 -22 5 -12 2 9 2 23 0 30 -3 6 -5 -1 -5 -18z"/>
<path d="M707 1153 c-10 -9 -9 -33 1 -33 4 0 8 9 8 20 0 23 0 22 -9 13z"/>
<path d="M565 610 c3 -6 1 -10 -6 -10 -7 0 -10 -3 -6 -6 3 -3 13 -2 22 4 16 8
16 9 1 15 -10 4 -15 3 -11 -3z"/>
<path d="M570 554 c0 -8 5 -12 10 -9 6 4 8 11 5 16 -9 14 -15 11 -15 -7z"/>
<path d="M808 2123 c12 -2 32 -2 45 0 12 2 2 4 -23 4 -25 0 -35 -2 -22 -4z"/>
<path d="M798 2093 c7 -3 16 -2 19 1 4 3 -2 6 -13 5 -11 0 -14 -3 -6 -6z"/>
<path d="M1156 433 c-3 -3 -6 -11 -6 -17 0 -6 5 -4 10 4 8 12 10 11 10 -5 0
-23 18 -45 35 -45 5 0 2 5 -7 11 -10 5 -18 19 -18 29 0 20 -13 33 -24 23z"/>
<path d="M1140 382 c0 -12 19 -26 26 -19 2 2 -2 10 -11 17 -9 8 -15 8 -15 2z"/>
<path d="M1146 247 c3 -10 9 -15 12 -12 3 3 0 11 -7 18 -10 9 -11 8 -5 -6z"/>
<path d="M1146 133 c-6 -14 -5 -15 5 -6 7 7 10 15 7 18 -3 3 -9 -2 -12 -12z"/>
</g>
</svg>
